<svg width="2017" height="472" viewBox="0 0 2017 472" fill="none" xmlns="http://www.w3.org/2000/svg">
<path fill-rule="evenodd" clip-rule="evenodd" d="M879.512 1.25C878.513 4.191 786.707 471.025 787.084 471.251C787.313 471.388 803.92 471.275 823.988 471L860.477 470.5L906.035 238.5C931.091 110.9 951.898 5.038 952.271 3.25L952.95 0H916.444C888.132 0 879.842 0.281 879.512 1.25ZM1908.53 22.987L1852.57 23.5L1821.58 76.25C1804.54 105.263 1790.07 129 1789.44 129C1788.8 129 1774.16 105.389 1756.89 76.532L1725.5 24.063L1674.5 24.172C1646.45 24.232 1610.31 24.556 1594.19 24.891L1564.88 25.5L1628.06 116.5C1662.81 166.55 1693 210.076 1695.14 213.224L1699.04 218.948L1626.02 328.474L1552.99 438H1618.84C1655.06 438 1688.7 437.708 1693.6 437.351L1702.5 436.703L1739.67 373.101C1764.93 329.888 1777.38 309.5 1778.49 309.5C1779.6 309.5 1792.65 330.3 1818.34 373L1856.55 436.5L1860.28 436.45C1862.32 436.422 1898.42 436.31 1940.5 436.2C1988.51 436.074 2017 435.643 2017 435.041C2017 434.514 1984.46 386.701 1944.68 328.791C1904.91 270.881 1871.59 222.307 1870.63 220.85L1868.9 218.2L1934.95 120.679C1971.28 67.042 2001 22.897 2001 22.579C2001 22.26 1992.79 22.107 1982.75 22.237C1972.71 22.368 1939.31 22.705 1908.53 22.987ZM1383.67 25.75L1322.83 26.016L1323.52 154.758C1324.28 295.69 1324.45 290.518 1318.53 305.279C1312.84 319.461 1301.63 332.803 1290.5 338.652C1267.02 350.99 1231.28 350.429 1209.81 337.384C1197.19 329.716 1186.44 313.795 1181.89 296C1179.34 286.05 1179.28 283.186 1178.18 125.5L1177.5 27.5L1111.04 27.796C1074.48 27.958 1044.52 28.183 1044.46 28.296C1043.73 29.586 1046.17 283.66 1047.01 293.5C1051.6 347.387 1073.02 385.98 1113.33 412.97C1117.64 415.855 1127.09 421.039 1134.33 424.491C1159.92 436.687 1185.39 443.036 1220.85 446.058C1238.81 447.588 1280.9 446.736 1297 444.516C1349.58 437.264 1386.36 421.006 1414.5 392.581C1439.39 367.44 1454.15 332.318 1456.78 291.949C1457.59 279.614 1456.39 28.653 1455.52 26.25C1455.22 25.421 1453.28 25.081 1449.78 25.242C1446.88 25.375 1417.12 25.604 1383.67 25.75ZM565.632 30.748L553.765 31.066L554.377 76.283C554.714 101.152 555.219 171.225 555.499 232C555.779 292.775 556.289 365.41 556.632 393.41L557.257 444.32L623.247 443.709C659.541 443.372 689.422 442.912 689.648 442.685C690.237 442.097 688.029 54.765 687.36 41.25L686.803 30L632.151 30.215C602.093 30.333 572.16 30.573 565.632 30.748ZM341.2 31.75L278.9 32.015L279.2 163.758L279.5 295.5L277.24 303.299C271.671 322.511 259.871 337.973 245.059 345.466C222.323 356.967 186.626 356.029 165.81 343.384C153.188 335.717 142.448 319.799 137.887 302C135.791 293.816 135.682 290.857 134.963 222.5C134.552 183.45 134.168 124.769 134.108 92.098L134 32.695L67.2568 33.424C30.5478 33.825 0.481744 34.231 0.442744 34.326C-0.253256 36.032 2.20974 290.038 3.01374 299.5C8.24774 361.108 35.7777 403.355 87.6007 429.308C112.479 441.767 140.801 448.986 176.855 452.058C194.82 453.589 236.907 452.736 253 450.515C325.66 440.487 373.16 410.826 397.11 360.528C405.956 341.949 411.257 320.744 412.793 297.789C413.627 285.333 412.428 34.707 411.523 32.25C411.242 31.487 409.588 31.094 407.281 31.242C405.202 31.376 375.465 31.604 341.2 31.75Z" fill="#CD6E29"/>
</svg>
