<svg width="2014" height="471" viewBox="0 0 2014 471" fill="none" xmlns="http://www.w3.org/2000/svg">
<path fill-rule="evenodd" clip-rule="evenodd" d="M1062 0.681C1062 1.812 1153.01 468.402 1153.49 469.75C1153.84 470.719 1162.16 471 1190.55 471H1227.16L1226.57 468.25C1224.86 460.333 1135 1.697 1135 0.919C1135 0.377 1120.02 0 1098.5 0C1078.42 0 1062 0.306 1062 0.681ZM14.352 26.474C14.663 27.284 44.239 71.247 80.078 124.168C139.523 211.949 145.126 220.569 143.962 222.445C143.26 223.575 110.581 271.245 71.343 328.378C20.001 403.135 0 433.016 0 434.966V437.676L78.164 438.374C121.154 438.758 156.701 438.699 157.158 438.242C157.614 437.786 175.048 409.082 195.899 374.456C221.937 331.219 234.337 311.5 235.491 311.5C236.656 311.5 248.479 330.815 274.057 374.5C294.345 409.15 311.069 437.769 311.222 438.098C311.727 439.185 460 440.076 460 438.993C460 438.443 427.525 389.284 387.833 329.75C348.142 270.216 315.674 221.055 315.683 220.504C315.692 219.952 345.49 176.614 381.901 124.199C418.311 71.783 448.352 28.246 448.658 27.449C449.141 26.191 438.651 26 369.16 26H289.107L257.752 78.246C240.507 106.982 225.746 130.617 224.949 130.769C223.982 130.954 213.27 113.631 192.734 78.67L161.967 26.294L153.734 25.653C149.205 25.3 115.864 25.009 79.643 25.006C22.032 25.001 13.857 25.185 14.352 26.474ZM557.666 122.25C556.651 267.74 556.761 292.074 558.495 305.3C565.696 360.237 593.419 399.717 641.5 423.509C657.842 431.595 671.71 436.502 689.212 440.39C722.869 447.868 766.276 449.8 803.638 445.483C893.55 435.094 948.838 390.845 963.474 317.558C967.404 297.881 967.896 286.39 968.466 201C968.764 156.175 969.284 98.913 969.62 73.75L970.231 28H903.734H837.237L836.627 77.25C836.292 104.338 835.766 160.925 835.459 203C835.15 245.435 834.446 283.062 833.88 287.5C830.987 310.145 818.106 330.885 801.484 339.659C789.166 346.162 782.514 347.5 762.5 347.5C746.458 347.5 743.684 347.246 737 345.168C719.448 339.712 706.342 328.634 698.469 312.598C689.841 295.026 690.456 307.429 690.839 158.75L691.179 27H624.754H558.33L557.666 122.25ZM1327.01 35.597C1327.02 39.393 1326.3 132.199 1325.42 241.83C1324.55 351.462 1324.09 441.427 1324.42 441.754C1324.75 442.08 1354.71 442.554 1391.01 442.808L1457 443.27L1457 428.885C1457 420.973 1457.7 328.162 1458.55 222.637C1459.41 117.113 1459.97 30.633 1459.79 30.46C1459.62 30.287 1429.67 29.819 1393.24 29.42L1327 28.693L1327.01 35.597ZM1602.66 30.75C1602.41 31.163 1601.89 90.9 1601.49 163.5C1600.85 282.767 1600.94 296.706 1602.42 308C1607.39 345.821 1620.72 374.121 1644.85 398.058C1676.04 428.999 1717.46 445.219 1777.72 450.087C1795.64 451.534 1834.5 450.723 1850.92 448.56C1902.19 441.808 1939.97 425.191 1968.03 397.059C1990.76 374.276 2003.51 347.665 2009.56 310.429C2011.39 299.154 2012.49 236.2 2013.13 106L2013.5 31.5L1947.41 31.243L1881.32 30.986L1880.66 67.156C1880.3 87.05 1879.96 124.066 1879.91 149.414C1879.86 174.761 1879.47 217.325 1879.05 244C1878.18 298.93 1877.97 300.608 1869.79 317C1864.3 327.988 1853.63 339.006 1843.84 343.784C1832.04 349.548 1823.44 351.289 1806.5 351.347C1789.66 351.405 1781.21 349.679 1769.29 343.744C1752.67 335.474 1739.92 317.657 1735.48 296.5C1733.94 289.146 1733.86 278.119 1734.51 159.91L1735.22 31.321L1720.86 30.664C1701.02 29.757 1603.22 29.828 1602.66 30.75Z" fill="#78A0DD" fill-opacity="0.69"/>
</svg>
