<svg width="156" height="1241" viewBox="0 0 156 1241" fill="none" xmlns="http://www.w3.org/2000/svg">
<path fill-rule="evenodd" clip-rule="evenodd" d="M33.3405 980.463L33.4789 987.418H77.244H121.009L120.708 972.294C120.542 963.976 120.406 947.558 120.406 935.81V914.451H109.481H98.5548V937.025V959.599H65.7774H33L33.1011 966.554C33.1566 970.379 33.2645 976.638 33.3405 980.463ZM76.7032 890.736H120.406V876.827V862.918H76.7032H33V876.827V890.736H76.7032ZM76.1341 824.132C99.8581 832.761 119.527 839.91 119.844 840.019C120.302 840.177 120.395 837.292 120.299 825.946L120.179 811.673L114.141 809.862L108.103 808.052L108.223 792.533L108.342 777.014L114.374 775.205L120.406 773.396V758.594C120.406 746.943 120.285 743.838 119.837 744.006C119.525 744.124 100.933 750.941 78.5241 759.154C56.1149 767.368 36.7048 774.491 35.39 774.983L33 775.879V792.161L33 808.444L76.1341 824.132ZM61.794 1161.49C90.9659 1161.19 95.1792 1161.36 97.8469 1162.92C102.038 1165.37 102.963 1172.7 99.5882 1176.72C98.0454 1178.55 96.2695 1179.29 92.4686 1179.68L89.4499 1179.99V1193V1206L94.1162 1205.71C108.445 1204.84 117.024 1197.87 120.751 1184.08C121.878 1179.91 121.952 1179.02 121.95 1169.61C121.948 1157.98 121.441 1155.27 117.932 1148.17C113.778 1139.76 107.114 1135.29 96.5872 1133.84C94.3497 1133.53 81.9558 1133.35 63.2408 1133.35H33.4552L33.4552 1147.56V1161.78L61.794 1161.49ZM63.1597 1104.06C92.1686 1103.9 92.9489 1103.87 96.4798 1102.89C102.708 1101.15 106.495 1098.97 110.877 1094.6C113.83 1091.66 115.228 1089.83 116.635 1087.06C118.748 1082.91 120.472 1077.69 121.378 1072.7C122.209 1068.11 122.207 1052.64 121.374 1048.07C118.511 1032.38 110.447 1022.28 97.637 1018.36C94.2559 1017.32 94.0001 1017.32 63.8426 1017.17L33.4552 1017.02V1030.94L33.4552 1044.85L61.794 1044.98L90.1328 1045.11L93.0008 1046.43C96.6373 1048.12 99.6341 1051.34 100.614 1054.61C101.347 1057.07 101.573 1062.92 101.021 1065.21C100.031 1069.32 97.022 1072.93 93.1533 1074.64C90.0267 1076.03 84.206 1076.3 57.6968 1076.33L33.4552 1076.35V1090.28V1104.22L63.1597 1104.06ZM73.2224 787.468C81.4486 785.04 88.264 783.138 88.3687 783.243C88.473 783.347 88.503 787.648 88.4352 792.8L88.3118 802.167L73.5165 797.753C56.1354 792.567 56.6689 792.751 57.583 792.254C57.9586 792.051 64.9962 789.897 73.2224 787.468Z" fill="#696868"/>
<path fill-rule="evenodd" clip-rule="evenodd" d="M46.5783 308.057C48.3256 317.826 54.3684 326.251 62.0617 329.645C70.998 333.587 86.1425 333.393 94.3061 329.233C103.483 324.556 108.68 315.698 109.448 303.424C110.598 285.035 103.391 271.956 89.9064 267.963C83.8431 266.167 72.4287 266.24 65.7198 268.117C58.512 270.133 51.187 277.098 48.4492 284.538C46.2689 290.465 45.3948 301.443 46.5783 308.057ZM46.8744 116.527C50.9531 132.52 65.806 140.482 85.4098 137.185C96.5833 135.305 105.117 128.283 107.898 118.677C110.546 109.537 109.738 96.2945 106.104 89.2793C103.972 85.1638 98.4408 79.9089 94.5533 78.3056C92.8416 77.5997 89.6406 76.8824 87.4398 76.7103L83.4385 76.399L83.186 85.4458L82.9326 94.4926L86.516 95.4556C93.1662 97.2406 96.0027 103.091 93.5743 110.012C91.6244 115.573 88.0169 117.195 77.6588 117.169C67.5684 117.144 64.0134 115.691 61.9407 110.744C59.2261 104.264 62.0492 97.8374 68.35 96.1561L72.3237 95.0964V85.5486V76L69.4339 76.4744C61.0862 77.8436 58.4765 79.0256 54.0297 83.4515C51.1114 86.3565 48.9658 89.5045 47.9521 92.3679C45.8954 98.1797 45.345 110.529 46.8744 116.527ZM47.4524 616.23C51.5755 632.591 67.708 641.191 86.7294 637.166C103.958 633.52 112.084 619.66 109.492 598.335C107.294 580.237 95.1606 570.669 76.0014 571.924C66.5245 572.545 62.9891 573.669 57.4975 577.803C54.4431 580.102 52.3251 582.756 50.1502 587.007C47.2781 592.624 47.0807 593.577 46.8531 602.936C46.7197 608.411 46.9891 614.392 47.4524 616.23ZM47.3848 257.742C47.8516 257.742 61.7247 252.953 78.2137 247.101C94.7036 241.248 108.338 236.46 108.513 236.46C108.689 236.46 108.72 231.212 108.584 224.798L108.336 213.135L78.548 202.654C62.1648 196.889 48.2473 192.16 47.6195 192.147C46.7437 192.128 46.5374 194.431 46.7304 202.092L46.982 212.062L62.0981 216.664C70.412 219.193 79.5403 221.989 82.3822 222.876L87.551 224.488L68.5998 230.151C58.1777 233.266 48.9489 236.173 48.0935 236.611C46.7481 237.3 46.5374 238.787 46.5374 247.575C46.5374 253.43 46.8966 257.742 47.3848 257.742ZM47.1305 175.568C47.4559 175.894 61.4606 176.16 78.2519 176.16H108.78V165.962L108.78 155.764H77.6588H46.5374L46.5374 165.371C46.5374 170.655 46.8042 175.244 47.1305 175.568ZM69.4339 675.42C81.5383 675.428 91.916 675.735 92.4966 676.104C94.1221 677.134 95.2131 680.924 94.5915 683.38C94.0776 685.411 93.0097 686.041 87.631 687.484C86.773 687.713 86.5516 690.057 86.7418 696.895L86.9953 706L91.3736 705.718C103.159 704.958 109.917 696.212 109.998 681.614C110.057 671.11 108.473 666.147 103.466 661.155C97.7508 655.455 95.2789 655.011 69.2623 655.011H47.4266V665.209V675.407L69.4339 675.42ZM48.5381 562.763C49.1498 562.75 62.8539 558.039 78.9926 552.297L108.336 541.854L108.583 530.27L108.83 518.686L106.36 517.697C103.306 516.475 48.1771 497.168 47.7414 497.168C47.568 497.168 47.4266 501.726 47.4266 507.296V517.426L56.0961 520.098C60.8639 521.569 69.8625 524.279 76.0921 526.123C82.3226 527.967 86.9241 529.739 86.3177 530.062C85.7122 530.385 76.7145 533.187 66.3217 536.288L47.4266 541.927V552.358C47.4266 560.124 47.7102 562.782 48.5381 562.763ZM49.4015 471.348C50.5156 471.765 63.832 476.602 78.9926 482.096C94.1532 487.59 107.058 492.274 107.669 492.504C108.518 492.824 108.78 490.512 108.78 482.702V472.481L104.307 470.999L99.8333 469.517L100.083 459.22L100.333 448.924L104.557 447.617L108.78 446.311V435.825C108.78 430.058 108.48 425.346 108.113 425.354C107.747 425.361 94.042 430.264 77.6588 436.25L47.8712 447.131L47.6231 458.86C47.3795 470.36 47.4141 470.604 49.4015 471.348ZM78.1034 411.152H108.78V401.863V392.574L94.3799 392.33L79.9796 392.086L94.3737 379.672L108.768 367.257L108.774 358.611L108.78 349.965H78.1034H47.4266V359.254V368.543L61.7905 368.787L76.1543 369.03L61.7905 381.248L47.4266 393.465V402.309V411.152H78.1034ZM63.1011 292.505C65.734 288.43 69.4917 287.012 77.6588 287.009C86.7187 287.008 90.6925 288.614 92.9955 293.212C96.1939 299.596 94.0838 307.536 88.4126 310.461C84.9386 312.253 71.672 312.327 67.4759 310.58C61.489 308.084 59.1852 298.567 63.1011 292.505ZM63.046 598.145C65.0689 594.243 70.4689 592.083 78.1034 592.12C86.1683 592.16 89.9918 593.528 92.5215 597.281C94.9428 600.872 95.2647 607.616 93.2044 611.589C90.9619 615.913 87.214 617.328 78.1034 617.291C68.7777 617.253 64.8857 615.709 62.9553 611.281C61.2996 607.484 61.3414 601.432 63.046 598.145ZM74.6196 456.388C79.4701 454.929 83.9391 453.732 84.55 453.726C85.328 453.719 85.6615 455.474 85.6615 459.575C85.6615 463.876 85.3663 465.332 84.55 465.049C83.9391 464.838 79.3607 463.508 74.3777 462.093C69.3939 460.679 65.4254 459.414 65.5579 459.281C65.6913 459.149 69.7691 457.847 74.6196 456.388Z" fill="white"/>
</svg>
