<svg width="1957" height="429" viewBox="0 0 1957 429" fill="none" xmlns="http://www.w3.org/2000/svg">
<path fill-rule="evenodd" clip-rule="evenodd" d="M713.749 1.06423C611.004 7.24223 544.903 55.5502 523.01 140.462C516.951 163.96 515.587 177.107 515.587 212C515.587 247.448 516.927 259.924 523.481 285.495C542.636 360.235 594.453 406.576 675.5 421.448C697.277 425.444 709.965 426.459 738 426.451C765.802 426.442 777.184 425.516 799.5 421.444C882.535 406.292 935.998 356.795 953.359 279C962.727 237.022 961.961 184.462 951.377 143C934.992 78.8182 893.794 34.8812 830.5 14.0902C807.687 6.59623 786.112 2.75623 757 1.00923C738.839 -0.0817746 732.67 -0.0737743 713.749 1.06423ZM183.5 3.08823C150.313 5.95223 121.856 13.1982 97.4999 24.9872C42.9219 51.4042 13.1239 96.5522 2.45185 169C0.260855 183.873 -0.576145 224.335 0.939855 242.123C10.2099 350.917 64.9049 411.121 167.565 425.532C195.082 429.395 234.222 429.359 260.802 425.446C294.858 420.433 322.79 410.417 345.985 394.902C357.956 386.895 374.904 370.555 382.959 359.256C400.263 334.98 410.216 303.467 411.704 268.242L412.306 253.984L351.403 254.242L290.5 254.5L289.893 264C288.133 291.556 275.437 311.807 253.5 322.053C242.419 327.228 233.005 329.183 216.402 329.756C195.255 330.486 181.533 327.19 168.295 318.2C151.094 306.519 139.702 283.977 136.104 254.5C134.415 240.662 134.684 180.672 136.489 168.697C139.548 148.403 147.617 130.558 158.815 119.319C166.466 111.64 179.332 104.996 191.5 102.44C203.304 99.9612 224.151 100.17 234.3 102.869C260.053 109.719 278.096 129.729 283.497 157.431C284.255 161.319 285.164 167.537 285.517 171.25L286.159 178H349.169H412.18L411.542 169.25C409.773 144.996 407.095 130.014 401.583 113.542C394.173 91.3972 382.432 72.4052 366.011 56.0002C352.749 42.7522 340.292 33.8772 322.5 25.0042C301.376 14.4682 280.27 8.24023 253 4.49423C239.03 2.57523 198.856 1.76223 183.5 3.08823ZM1643.46 4.75023L1593.42 5.01823L1593.8 53.7592C1594.01 80.5672 1594.7 173 1595.34 259.167C1595.98 345.334 1596.79 416.129 1597.16 416.49C1597.52 416.851 1678.63 416.819 1777.41 416.418L1957 415.69L1957 380.595C1956.99 361.293 1956.7 339.2 1956.35 331.5L1955.71 317.5L1842 317.801L1728.28 318.101L1727.55 286.977C1727.14 269.859 1727.12 255.549 1727.49 255.177C1727.86 254.805 1771.1 254.347 1823.58 254.16L1919 253.821V206.91V160H1823.14H1727.27L1726.64 155.36C1726.29 152.809 1726 140.058 1726 127.025V103.328L1789.75 102.665C1824.81 102.3 1875.21 102.001 1901.75 102.001L1950 102V53.0002V4.00023L1821.75 4.24123C1751.21 4.37323 1670.98 4.60223 1643.46 4.75023ZM1078.74 6.75023C1078.17 7.86923 1081.42 417.757 1082 418.308C1082.27 418.569 1129.97 418.406 1188 417.947C1299.68 417.063 1299.79 417.058 1326.32 411.982C1402.22 397.463 1449.83 354.108 1466.86 284C1479.21 233.145 1476.8 167.255 1460.96 122.5C1444.39 75.6912 1413.44 43.0002 1368.23 24.5362C1346.93 15.8402 1317.57 9.37923 1288.7 7.03823C1273.96 5.84323 1079.33 5.57623 1078.74 6.75023ZM765.297 102.387C795.67 111.474 814.613 133.135 822.235 167.5C823.936 175.164 824.305 181.425 824.724 209.677C825.225 243.511 824.678 252.683 821.367 265.883C817.448 281.511 809.086 296.262 798.058 307C782.781 321.876 764.843 328.148 737.5 328.174C722.057 328.188 712.531 326.702 701.579 322.571C674.118 312.213 656.565 287.84 651.451 252.968C650.137 244.009 649.92 235.506 650.259 206.258C650.633 173.929 650.874 169.733 652.775 162.5C660.295 133.886 675.865 114.689 699.195 105.265C711.346 100.357 720.78 98.9812 739.5 99.3872C754.303 99.7072 757.637 100.095 765.297 102.387ZM1269.5 105.032C1302.42 108.748 1323.92 124.89 1333.55 153.129C1338.19 166.731 1339.17 175.399 1339.73 207.56C1340.31 240.88 1339.43 252.831 1335.37 266.842C1327.32 294.619 1309.59 311.146 1281 317.506C1275.3 318.773 1266.25 319.303 1243.37 319.709L1213.24 320.243L1212.64 284.872C1211.6 222.721 1210.96 105.378 1211.66 104.677C1212.72 103.614 1259.48 103.902 1269.5 105.032Z" fill="#CD6E29"/>
</svg>
