<svg width="1959" height="429" viewBox="0 0 1959 429" fill="none" xmlns="http://www.w3.org/2000/svg">
<path fill-rule="evenodd" clip-rule="evenodd" d="M1194.5 1.1211C1093.56 8.8201 1028.13 58.0441 1006.46 142.584C999.966 167.923 998.587 180.64 998.55 215.5C998.514 248.877 999.271 257.092 1004.55 280.632C1018.61 343.298 1058.39 389.027 1118.36 411.43C1173.7 432.106 1256.81 433.214 1315 414.051C1389.2 389.616 1430.39 336.7 1441.65 251.334C1444.03 233.31 1444.03 190.448 1441.65 172.5C1432.92 106.559 1404.68 60.4201 1355.27 31.3411C1315.01 7.6461 1255.53 -3.5339 1194.5 1.1211ZM1721 2.6611C1685.61 6.1041 1662.99 11.7391 1639.28 23.0191C1590.42 46.2671 1561.19 83.0651 1550.45 134.851C1547.87 147.277 1545.2 174.48 1546.29 177.302C1546.89 178.874 1551.6 179 1609.97 179H1673V174.131C1673 166.442 1675.79 152.447 1678.93 144.346C1687.03 123.487 1703.59 108.53 1724 103.632C1746.95 98.1241 1773.97 102.034 1790.72 113.287C1807.89 124.821 1818.34 145.343 1821.9 174.5C1823.29 185.881 1823.33 235.953 1821.97 250.5C1819.5 276.796 1810.21 300.076 1797.38 312.147C1783.61 325.093 1764.38 330.882 1739.06 329.697C1715.85 328.61 1700.78 322.807 1687.92 310.006C1676.03 298.17 1670.08 283.845 1668.46 263.192L1667.74 254H1606.28H1544.81L1545.45 264.75C1547.81 304.561 1555.7 331.11 1572.85 357C1580.27 368.206 1598.83 386.721 1610.81 394.86C1634.7 411.1 1662.92 421.231 1699.5 426.696C1709.24 428.152 1717.8 428.483 1745 428.458C1774.74 428.431 1780.11 428.174 1792.86 426.176C1841.33 418.572 1877.06 402.045 1904.5 374.524C1933.17 345.776 1950.42 305.947 1956.5 254.436C1961.07 215.81 1958.81 172.554 1950.52 139.5C1929.72 56.6701 1871.19 11.2971 1774.5 3.0451C1763.47 2.1041 1729.25 1.8581 1721 2.6611ZM7.99842 18.1511C7.99842 26.0431 7.70142 48.3181 7.33842 67.6501L6.68042 102.8L118.757 103.15C180.399 103.343 230.984 103.725 231.167 104C231.35 104.275 231.361 116.987 231.191 132.25L230.882 160H135.063H39.2444L38.7844 206.75C38.5314 232.463 38.5034 253.837 38.7214 254.25C38.9394 254.663 82.0664 255 134.559 255H230V286.66V318.32L115.75 317.91L1.50042 317.5L1.24142 367.092L0.982422 416.684L181.237 417.262C280.377 417.581 361.618 417.716 361.771 417.562C362.436 416.897 365.218 5.8851 364.562 5.2291C364.161 4.8281 283.771 4.3431 185.917 4.1511L8.00042 3.8011L7.99842 18.1511ZM671.5 6.6441C669.85 6.8341 663.55 7.4721 657.5 8.0621C641.373 9.6351 618.964 14.3571 603.541 19.4331C575.275 28.7341 554.746 41.0971 535.464 60.4311C513.982 81.9701 500.653 105.819 492.102 138.016C481.264 178.818 480.058 235.862 489.141 277.954C494.087 300.876 503.782 324.413 515.716 342.472C524.364 355.559 542.917 374.191 555.958 382.885C586.542 403.275 624.024 414.507 673 417.958C681.306 418.544 727.975 418.984 782.25 418.99L877 419L877.023 413.75C877.036 410.863 877.701 330.425 878.5 235C879.299 139.575 879.964 49.0131 879.977 33.7501L880 6.0001L777.25 6.1501C720.737 6.2321 673.15 6.4551 671.5 6.6441ZM1250 102.925C1282.51 112.408 1302.16 137.667 1307.02 176.213C1308.72 189.771 1307.76 248.708 1305.67 258.576C1298.09 294.354 1278.77 316.759 1248.2 325.244C1237.38 328.246 1205.17 328.479 1194.5 325.632C1186.1 323.392 1174.85 318.365 1168.6 314.069C1157.48 306.418 1146.44 291.987 1141.16 278.209C1134.85 261.735 1134.5 258.412 1134.5 215.5C1134.5 181.485 1134.73 175.416 1136.33 168.016C1142.24 140.583 1157.49 119.147 1178.52 108.713C1193.03 101.512 1201.46 99.9901 1224.5 100.409C1239.39 100.681 1243.79 101.115 1250 102.925ZM746.277 130.749C746.154 144.912 745.762 193.352 745.405 238.393L744.755 320.285L715.628 319.741C684.811 319.165 677.322 318.262 664.355 313.555C640.211 304.791 625.412 284.988 620.535 254.916C618.747 243.89 618.381 191.047 619.995 176.962C623.481 146.54 636.817 124.56 658 114.318C674.039 106.564 682.491 105.301 719.5 105.126L746.5 104.998L746.277 130.749Z" fill="#78A0DD" fill-opacity="0.69"/>
</svg>
