<svg width="109" height="109" viewBox="0 0 109 109" fill="none" xmlns="http://www.w3.org/2000/svg">
<rect x="1" y="1" width="107" height="107" rx="11" stroke="#CD6E29" stroke-width="2"/>
<path d="M21.2309 37.0531V27.6031H35.1609V37.0531H21.2309ZM21.2309 78.3531V41.3931H35.1609V78.3531H21.2309ZM75.1315 40.5531C79.4248 40.5531 82.6448 41.7431 84.7915 44.1231C86.9382 46.5031 88.0115 49.9331 88.0115 54.4131V78.3531H74.0815V56.0931C74.0815 54.5065 73.6615 53.2465 72.8215 52.3131C72.0282 51.3331 70.8848 50.8431 69.3915 50.8431C67.6648 50.8431 66.2648 51.4031 65.1915 52.5231C64.1182 53.6431 63.5815 55.0198 63.5815 56.6531V78.3531H49.6515V41.3931H61.0615L61.9715 46.9931C63.4182 45.0331 65.3082 43.4698 67.6415 42.3031C70.0215 41.1365 72.5182 40.5531 75.1315 40.5531Z" fill="#CD6E29"/>
</svg>
