<svg width="1029" height="748" viewBox="0 0 1029 748" fill="none" xmlns="http://www.w3.org/2000/svg">
<g clip-path="url(#clip0_1572_318)">
<path fill-rule="evenodd" clip-rule="evenodd" d="M494.551 552.748L479.301 553.052V649.188V745.323L512.464 744.662C530.704 744.298 566.704 744 592.464 744H639.301V720V696H589.801H540.301V624V552L525.051 552.222C516.663 552.344 502.938 552.581 494.551 552.748ZM691.301 648V744H721.801H752.301V648V552H721.801H691.301V648ZM837.349 646.75C818.428 698.863 802.751 742.069 802.512 742.764C802.165 743.77 808.492 743.975 833.372 743.764L864.668 743.5L868.639 730.237L872.609 716.974L906.639 717.237L940.668 717.5L944.635 730.75L948.602 744H981.058C1006.61 744 1013.42 743.734 1013.05 742.75C1012.79 742.063 997.841 701.225 979.831 652C961.82 602.775 946.2 560.138 945.121 557.25L943.157 552H907.454H871.75L837.349 646.75ZM97.608 615.25C98.262 679.33 97.896 688.585 94.473 694.445C89.096 703.652 73.021 705.684 64.21 698.27C60.182 694.881 58.56 690.98 57.704 682.631L57.025 676H28.512H0L0.626 686.25C2.549 717.726 17.828 736.571 48.062 744.758C57.203 747.233 59.152 747.395 79.801 747.391C105.291 747.387 111.231 746.272 126.801 738.565C145.241 729.439 155.051 714.801 158.227 691.678C158.902 686.763 159.301 659.538 159.301 618.428V553H128.137H96.973L97.608 615.25ZM223.537 618.25C223.883 681.972 223.943 683.686 226.105 691.442C229.916 705.123 234.695 713.441 244.275 723.068C250.731 729.555 254.744 732.626 260.801 735.715C269.903 740.357 281.356 744.145 292.301 746.134C302.355 747.96 336.288 747.955 346.301 746.126C380.718 739.837 402.851 722.124 411.452 693.984C413.722 686.557 413.741 685.995 414.06 619.75L414.381 553H383.87H353.359L353.08 615.25L352.801 677.5L349.892 683.8C346.203 691.788 339.143 698.371 331.954 700.523C326.572 702.134 313.734 702.629 308.718 701.418C299.705 699.243 291.796 692.633 288.037 684.135C284.998 677.267 284.392 664.481 284.345 606.25L284.301 553H253.742H223.183L223.537 618.25ZM917.744 640.354C923.069 658.424 927.239 673.395 927.01 673.625C926.78 673.854 917.35 673.92 906.053 673.771L885.513 673.5L895.193 641C906.564 602.82 906.16 603.992 907.249 606C907.696 606.825 912.419 622.284 917.744 640.354Z" fill="white"/>
<path fill-rule="evenodd" clip-rule="evenodd" d="M63.4217 417.943C61.6744 408.174 55.6315 399.749 47.9383 396.355C39.002 392.413 23.8575 392.607 15.6939 396.767C6.51661 401.444 1.32022 410.302 0.551969 422.576C-0.597745 440.965 6.60909 454.044 20.0936 458.037C26.1569 459.833 37.5713 459.76 44.2802 457.883C51.488 455.867 58.813 448.902 61.5508 441.462C63.7311 435.535 64.6052 424.557 63.4217 417.943ZM63.1256 609.473C59.0469 593.48 44.194 585.518 24.5902 588.815C13.4167 590.695 4.88318 597.717 2.10181 607.323C-0.546175 616.463 0.262097 629.706 3.89619 636.721C6.02756 640.836 11.5592 646.091 15.4467 647.694C17.1584 648.4 20.3594 649.118 22.5602 649.29L26.5615 649.601L26.814 640.554L27.0674 631.507L23.484 630.544C16.8338 628.759 13.9973 622.909 16.4257 615.988C18.3757 610.427 21.9831 608.805 32.3412 608.831C42.4316 608.856 45.9866 610.309 48.0593 615.256C50.7739 621.736 47.9508 628.163 41.65 629.844L37.6763 630.904V640.451V650L40.5661 649.526C48.9138 648.156 51.5235 646.974 55.9703 642.549C58.8886 639.643 61.0342 636.496 62.0479 633.632C64.1046 627.82 64.655 615.471 63.1256 609.473ZM62.5476 109.77C58.4245 93.4088 42.292 84.809 23.2706 88.834C6.04179 92.4804 -2.08357 106.34 0.507507 127.665C2.70557 145.763 14.8394 155.331 33.9986 154.076C43.4755 153.455 47.0109 152.331 52.5025 148.197C55.5569 145.898 57.6749 143.244 59.8498 138.993C62.7219 133.376 62.9193 132.423 63.1469 123.064C63.2803 117.589 63.0109 111.608 62.5476 109.77ZM62.6152 468.258C62.1484 468.258 48.2753 473.047 31.7863 478.899C15.2964 484.752 1.66167 489.54 1.4865 489.54C1.31133 489.54 1.28021 494.788 1.41626 501.202L1.66434 512.865L31.452 523.346C47.8352 529.111 61.7527 533.84 62.3805 533.853C63.2563 533.872 63.4626 531.569 63.2696 523.908L63.018 513.938L47.9019 509.336C39.588 506.807 30.4597 504.011 27.6178 503.124L22.449 501.512L41.4002 495.849C51.8223 492.734 61.0511 489.827 61.9065 489.389C63.2519 488.7 63.4626 487.213 63.4626 478.425C63.4626 472.57 63.1034 468.258 62.6152 468.258ZM62.8695 550.432C62.5441 550.106 48.5394 549.84 31.7481 549.84H1.21975V560.038V570.236H32.3412H63.4626V560.629C63.4626 555.345 63.1958 550.756 62.8695 550.432ZM40.5661 50.58C28.4617 50.572 18.084 50.2652 17.5034 49.8963C15.8779 48.8659 14.7869 45.0759 15.4084 42.6204C15.9224 40.5888 16.9903 39.9592 22.369 38.5165C23.227 38.2868 23.4484 35.9431 23.2582 29.1053L23.0047 20L18.6264 20.282C6.84116 21.0419 0.0833668 29.7881 0.00156192 44.386C-0.0571242 54.8896 1.5274 59.8529 6.53439 64.8453C12.2492 70.5445 14.7211 70.9888 40.7377 70.9888H62.5734V60.791V50.5933L40.5661 50.58ZM61.4619 163.237C60.8502 163.25 47.1461 167.961 31.0074 173.703L1.66434 184.146L1.41714 195.73L1.16995 207.314L3.6401 208.303C6.69356 209.525 61.8229 228.832 62.2586 228.832C62.432 228.832 62.5734 224.274 62.5734 218.704V208.574L53.9039 205.902C49.1361 204.431 40.1375 201.721 33.9079 199.877C27.6774 198.033 23.0759 196.261 23.6823 195.938C24.2878 195.615 33.2855 192.813 43.6783 189.712L62.5734 184.073V173.642C62.5734 165.876 62.2898 163.218 61.4619 163.237ZM60.5985 254.652C59.4844 254.235 46.168 249.398 31.0074 243.904C15.8468 238.41 2.94209 233.726 2.33122 233.496C1.48205 233.176 1.21975 235.488 1.21975 243.298V253.519L5.69323 255.001L10.1667 256.483L9.91685 266.78L9.66699 277.076L5.44337 278.383L1.21975 279.689V290.175C1.21975 295.942 1.52029 300.654 1.88663 300.646C2.25298 300.639 15.958 295.736 32.3412 289.75L62.1288 278.869L62.3769 267.14C62.6205 255.64 62.5859 255.396 60.5985 254.652ZM31.8966 314.848H1.21975V324.137V333.426L15.6201 333.67L30.0204 333.914L15.6263 346.328L1.23219 358.743L1.22597 367.389L1.21975 376.035H31.8966H62.5734V366.746V357.457L48.2095 357.213L33.8457 356.97L48.2095 344.752L62.5734 332.535V323.691V314.848H31.8966ZM46.8989 433.495C44.266 437.57 40.5083 438.988 32.3412 438.991C23.2813 438.992 19.3075 437.386 17.0045 432.788C13.8061 426.404 15.9162 418.464 21.5874 415.539C25.0614 413.747 38.328 413.673 42.5241 415.42C48.511 417.916 50.8148 427.433 46.8989 433.495ZM46.954 127.855C44.9311 131.757 39.5311 133.917 31.8966 133.88C23.8317 133.84 20.0082 132.472 17.4785 128.719C15.0572 125.128 14.7353 118.384 16.7956 114.411C19.0381 110.087 22.786 108.672 31.8966 108.709C41.2223 108.747 45.1143 110.291 47.0447 114.719C48.7004 118.516 48.6586 124.568 46.954 127.855ZM35.3804 269.612C30.5299 271.071 26.0609 272.268 25.45 272.274C24.672 272.281 24.3385 270.526 24.3385 266.425C24.3385 262.124 24.6337 260.668 25.45 260.951C26.0609 261.162 30.6393 262.492 35.6223 263.907C40.6061 265.321 44.5746 266.586 44.4421 266.719C44.3087 266.851 40.2309 268.153 35.3804 269.612Z" fill="#696868"/>
</g>
<defs>
<clipPath id="clip0_1572_318">
<rect width="1029" height="748" fill="white"/>
</clipPath>
</defs>
</svg>
